<svg width="28" height="28" viewBox="0 0 28 28" fill="none" xmlns="http://www.w3.org/2000/svg">
<path fill-rule="evenodd" clip-rule="evenodd" d="M14 26.8333C6.9123 26.8333 1.16663 21.0876 1.16663 14C1.16663 6.9123 6.9123 1.16663 14 1.16663C21.0876 1.16663 26.8333 6.9123 26.8333 14C26.8333 21.0876 21.0876 26.8333 14 26.8333ZM14 24.5C19.799 24.5 24.5 19.799 24.5 14C24.5 8.20097 19.799 3.49996 14 3.49996C8.20097 3.49996 3.49996 8.20097 3.49996 14C3.49996 19.799 8.20097 24.5 14 24.5ZM10.1583 19.4916L14 15.6499L17.8417 19.4916L19.4916 17.8417L15.6499 14L19.4916 10.1583L17.8417 8.50834L14 12.35L10.1583 8.50834L8.50834 10.1583L12.35 14L8.50834 17.8417L10.1583 19.4916Z" fill="#FF0532"/>
</svg>
