<svg width="26" height="26" viewBox="0 0 26 26" fill="none" xmlns="http://www.w3.org/2000/svg">
<path fill-rule="evenodd" clip-rule="evenodd" d="M13 25.8334C5.9123 25.8334 0.166626 20.0877 0.166626 13C0.166626 5.91237 5.9123 0.166687 13 0.166687C20.0876 0.166687 25.8333 5.91237 25.8333 13C25.8333 20.0877 20.0876 25.8334 13 25.8334ZM13 23.5C18.799 23.5 23.5 18.799 23.5 13C23.5 7.20103 18.799 2.50002 13 2.50002C7.20097 2.50002 2.49996 7.20103 2.49996 13C2.49996 18.799 7.20097 23.5 13 23.5ZM16.8417 8.67506L10.6666 14.8501L7.99158 12.1751L6.34167 13.825L10.6666 18.1499L18.4916 10.325L16.8417 8.67506Z" fill="#34A853"/>
</svg>
