<svg width="48" height="48" viewBox="0 0 48 48" fill="none" xmlns="http://www.w3.org/2000/svg">
<path fill-rule="evenodd" clip-rule="evenodd" d="M10.7998 4.8001C10.7998 4.13736 11.3371 3.6001 11.9998 3.6001H35.9998C36.6626 3.6001 37.1998 4.13736 37.1998 4.8001V6.8001H41.5998C41.9594 6.8001 42.2999 6.96129 42.5279 7.23931C42.7558 7.51734 42.847 7.88291 42.7765 8.23544L41.1765 16.2354C41.1301 16.4677 41.0159 16.6811 40.8484 16.8486L37.1998 20.4972V20.8001C37.1998 21.1184 37.0734 21.4236 36.8484 21.6486L28.8484 29.6486C28.6233 29.8737 28.3181 30.0001 27.9998 30.0001H27.5998V36.3656L31.3217 40.8319C31.5014 41.0475 31.5998 41.3194 31.5998 41.6001V44.0001C31.5998 44.6628 31.0626 45.2001 30.3998 45.2001H17.5998C16.9371 45.2001 16.3998 44.6628 16.3998 44.0001V41.6001C16.3998 41.3194 16.4983 41.0475 16.678 40.8319L20.3998 36.3656V30.0001H19.9998C19.6816 30.0001 19.3764 29.8737 19.1513 29.6486L11.1513 21.6486C10.9263 21.4236 10.7998 21.1184 10.7998 20.8001V20.4972L7.15131 16.8486C6.98379 16.6811 6.8696 16.4677 6.82314 16.2354L5.22314 8.23544C5.15264 7.88291 5.2439 7.51734 5.47183 7.23931C5.69976 6.96129 6.04033 6.8001 6.39984 6.8001H10.7998V4.8001ZM10.7998 9.2001H7.8636L9.10528 15.4085L10.7998 17.103V9.2001ZM37.1998 17.103V9.2001H40.1361L38.8944 15.4085L37.1998 17.103ZM22.7998 35.6001H25.1998V30.0001H22.7998V35.6001ZM22.1619 38.0001L18.7998 42.0346V42.8001H29.1998V42.0346L25.8378 38.0001H22.1619ZM27.5028 27.6001H26.402L26.3998 27.6001H21.5998L21.5977 27.6001H20.4969L13.1998 20.303V6.0001H34.7998V20.303L27.5028 27.6001Z" fill="#C1D3DE"/>
<path fill-rule="evenodd" clip-rule="evenodd" d="M24 19.0234L20.539 20.7999L21.2 17.0371L18.4 14.3723L22.2695 13.8234L24 10.3999L25.7305 13.8234L29.6 14.3723L26.8 17.0371L27.461 20.7999L24 19.0234Z" stroke="#376FFF" stroke-width="2.4" stroke-linejoin="round"/>
</svg>
