<svg width="60" height="60" viewBox="0 0 60 60" fill="none" xmlns="http://www.w3.org/2000/svg">
<path d="M25 4.5C25 6.53343 25 7.32203 25 9M5 25C7.63631 25 6.88167 25 9 25" stroke="#8B9BAB" stroke-width="3" stroke-linecap="round"/>
<path d="M29 10V25C29 27.2091 27.2091 29 25 29H9" stroke="#8B9BAB" stroke-width="3" stroke-linecap="round"/>
<path fill-rule="evenodd" clip-rule="evenodd" d="M27 10.5C17.8873 10.5 10.5 17.8873 10.5 27C10.5 36.1127 17.8873 43.5 27 43.5C36.1127 43.5 43.5 36.1127 43.5 27C43.5 17.8873 36.1127 10.5 27 10.5ZM7.5 27C7.5 16.2304 16.2304 7.5 27 7.5C37.7696 7.5 46.5 16.2304 46.5 27C46.5 31.8448 44.7331 36.277 41.8086 39.6873L55.0607 52.9393C55.6464 53.5251 55.6464 54.4749 55.0607 55.0607C54.4749 55.6464 53.5251 55.6464 52.9393 55.0607L39.6873 41.8086C36.277 44.7331 31.8448 46.5 27 46.5C16.2304 46.5 7.5 37.7696 7.5 27ZM25.5 15C25.5 14.1716 26.1716 13.5 27 13.5C34.4558 13.5 40.5 19.5442 40.5 27C40.5 27.8284 39.8284 28.5 39 28.5C38.1716 28.5 37.5 27.8284 37.5 27C37.5 21.201 32.799 16.5 27 16.5C26.1716 16.5 25.5 15.8284 25.5 15Z" fill="#376FFF"/>
</svg>
