<svg width="60" height="60" viewBox="0 0 60 60" fill="none" xmlns="http://www.w3.org/2000/svg">
<rect x="0.5" y="0.5" width="59" height="59" rx="11.5" stroke="#C1D3DE"/>
<path d="M14.8 12.4C14.8 10.6327 16.2327 9.2 18 9.2H32.4C34.1674 9.2 35.6 10.6327 35.6 12.4V17.2H14.8V12.4Z" stroke="#376FFF" stroke-width="2.4"/>
<path fill-rule="evenodd" clip-rule="evenodd" d="M12.4 16C9.96995 16 8 17.9699 8 20.4V38C8 40.4301 9.96995 42.4 12.4 42.4H26.5132C26.2873 41.6277 26.1322 40.8252 26.0555 40H12.4C11.2954 40 10.4 39.1046 10.4 38V27.2H19.2V29.2C19.2 30.7464 20.4536 32 22 32H27.9537C28.8082 30.6397 29.9116 29.4516 31.2 28.4995V27.2H33.3817C35.0271 26.4301 36.8633 26 38.8 26C40.0499 26 41.258 26.1792 42.4 26.5132V20.4C42.4 17.9699 40.4301 16 38 16H12.4ZM10.4 20.4C10.4 19.2954 11.2954 18.4 12.4 18.4H38C39.1046 18.4 40 19.2954 40 20.4V24.8H31.2H30H20.4H19.2H10.4V20.4ZM21.6 27.2H28.8V29.2C28.8 29.4209 28.6209 29.6 28.4 29.6H22C21.7791 29.6 21.6 29.4209 21.6 29.2V27.2Z" fill="#C1D3DE"/>
<path fill-rule="evenodd" clip-rule="evenodd" d="M46.3999 28.4995C45.6572 27.9506 44.8532 27.4802 43.9999 27.1004V42C43.9999 43.1046 43.1044 44 41.9999 44H27.1002C27.48 44.8533 27.9505 45.6574 28.4993 46.4L41.9999 46.4C44.4299 46.4 46.3999 44.4301 46.3999 42V28.4995Z" fill="#C1D3DE"/>
<path fill-rule="evenodd" clip-rule="evenodd" d="M38.8002 27.2C32.3937 27.2 27.2002 32.3935 27.2002 38.8C27.2002 45.2065 32.3937 50.4 38.8002 50.4C45.2067 50.4 50.4002 45.2065 50.4002 38.8C50.4002 32.3935 45.2067 27.2 38.8002 27.2ZM24.8002 38.8C24.8002 31.068 31.0682 24.8 38.8002 24.8C46.5322 24.8 52.8002 31.068 52.8002 38.8C52.8002 42.234 51.5638 45.3792 49.512 47.8147L54.0487 52.3515C54.5173 52.8201 54.5173 53.5799 54.0487 54.0485C53.5801 54.5171 52.8203 54.5171 52.3516 54.0485L47.8149 49.5118C45.3793 51.5636 42.2341 52.8 38.8002 52.8C31.0682 52.8 24.8002 46.532 24.8002 38.8ZM37.6002 30.8C37.6002 30.1372 38.1374 29.6 38.8002 29.6C43.8812 29.6 48.0002 33.719 48.0002 38.8C48.0002 39.4627 47.4629 40 46.8002 40C46.1374 40 45.6002 39.4627 45.6002 38.8C45.6002 35.0445 42.5557 32 38.8002 32C38.1374 32 37.6002 31.4627 37.6002 30.8Z" fill="#376FFF"/>
</svg>
