<svg width="60" height="60" viewBox="0 0 60 60" fill="none" xmlns="http://www.w3.org/2000/svg">
<rect x="0.5" y="0.5" width="59" height="59" rx="11.5" stroke="#C1D3DE"/>
<path fill-rule="evenodd" clip-rule="evenodd" d="M29.2 8C27.6536 8 26.4 9.25361 26.4 10.8V20.4C26.4 21.9464 27.6536 23.2 29.2 23.2H38.8C40.3464 23.2 41.6 21.9464 41.6 20.4V10.8C41.6 9.2536 40.3464 8 38.8 8H29.2ZM28.8 10.8C28.8 10.5791 28.9791 10.4 29.2 10.4H38.8C39.0209 10.4 39.2 10.5791 39.2 10.8V20.4C39.2 20.6209 39.0209 20.8 38.8 20.8H29.2C28.9791 20.8 28.8 20.6209 28.8 20.4V10.8ZM10.8 26.4C9.2536 26.4 8 27.6536 8 29.2V38.8C8 40.3464 9.25361 41.6 10.8 41.6H20.4C21.9464 41.6 23.2 40.3464 23.2 38.8V29.2C23.2 27.6536 21.9464 26.4 20.4 26.4H10.8ZM10.4 29.2C10.4 28.9791 10.5791 28.8 10.8 28.8H20.4C20.6209 28.8 20.8 28.9791 20.8 29.2V38.8C20.8 39.0209 20.6209 39.2 20.4 39.2H10.8C10.5791 39.2 10.4 39.0209 10.4 38.8V29.2ZM26.4 29.2C26.4 27.6536 27.6536 26.4 29.2 26.4H35.6127C33.8326 26.8562 32.202 27.6857 30.8092 28.8H29.2C28.9791 28.8 28.8 28.9791 28.8 29.2V30.8092C27.6857 32.202 26.8562 33.8326 26.4 35.6127V29.2Z" fill="#C1D3DE"/>
<path d="M9.19995 10.8C9.19995 9.91634 9.9163 9.2 10.8 9.2H20.3999C21.2836 9.2 22 9.91634 22 10.8V20.4C22 21.2837 21.2836 22 20.4 22H10.8C9.9163 22 9.19995 21.2837 9.19995 20.4V10.8Z" stroke="#376FFF" stroke-width="2.4"/>
<path fill-rule="evenodd" clip-rule="evenodd" d="M46.3369 28.4531C44.2226 26.9104 41.6176 26 38.8 26C36.8633 26 35.0271 26.4301 33.3817 27.2H42C43.1046 27.2 44 28.0954 44 29.2V42C44 43.1046 43.1046 44 42 44H29.2C28.0954 44 27.2 43.1046 27.2 42V33.3817C26.4301 35.0271 26 36.8633 26 38.8C26 41.6176 26.9104 44.2226 28.4531 46.3369C28.6959 46.3784 28.9454 46.4 29.2 46.4H42C44.4301 46.4 46.4 44.4301 46.4 42V29.2C46.4 28.9454 46.3784 28.6959 46.3369 28.4531Z" fill="#C1D3DE"/>
<path fill-rule="evenodd" clip-rule="evenodd" d="M38.8002 27.2C32.3937 27.2 27.2002 32.3935 27.2002 38.8C27.2002 45.2065 32.3937 50.4 38.8002 50.4C45.2067 50.4 50.4002 45.2065 50.4002 38.8C50.4002 32.3935 45.2067 27.2 38.8002 27.2ZM24.8002 38.8C24.8002 31.068 31.0682 24.8 38.8002 24.8C46.5322 24.8 52.8002 31.068 52.8002 38.8C52.8002 42.234 51.5638 45.3792 49.512 47.8147L54.0487 52.3515C54.5173 52.8201 54.5173 53.5799 54.0487 54.0485C53.5801 54.5171 52.8203 54.5171 52.3516 54.0485L47.8149 49.5118C45.3793 51.5636 42.2341 52.8 38.8002 52.8C31.0682 52.8 24.8002 46.532 24.8002 38.8ZM37.6002 30.8C37.6002 30.1372 38.1374 29.6 38.8002 29.6C43.8812 29.6 48.0002 33.719 48.0002 38.8C48.0002 39.4627 47.4629 40 46.8002 40C46.1374 40 45.6002 39.4627 45.6002 38.8C45.6002 35.0445 42.5557 32 38.8002 32C38.1374 32 37.6002 31.4627 37.6002 30.8Z" fill="#376FFF"/>
</svg>
