<svg width="60" height="60" viewBox="0 0 60 60" fill="none" xmlns="http://www.w3.org/2000/svg">
<rect x="0.5" y="0.5" width="59" height="59" rx="11.5" stroke="#C1D3DE"/>
<path d="M21.2261 19.4906C20.5636 19.5087 20.0119 18.9863 19.9938 18.3238C19.9757 17.6613 20.4981 17.1096 21.1606 17.0915L21.2261 19.4906ZM27.452 18.12L27.4192 16.9205C27.7333 16.9119 28.0383 17.0269 28.2685 17.2407L27.452 18.12ZM30.8167 19.6068C31.3023 20.0577 31.3305 20.817 30.8795 21.3027C30.4285 21.7883 29.6693 21.8164 29.1836 21.3655L30.8167 19.6068ZM21.1606 17.0915L27.4192 16.9205L27.4848 19.3196L21.2261 19.4906L21.1606 17.0915ZM28.2685 17.2407C29.2037 18.1091 30.0359 18.8818 30.8167 19.6068L29.1836 21.3655C28.4028 20.6405 27.5707 19.8678 26.6355 18.9994L28.2685 17.2407Z" fill="#C1D3DE"/>
<path d="M37.2785 15.0724L42.8001 12.444L51.1931 29.7688L45.3927 32.4735L37.2785 15.0724Z" stroke="#376FFF" stroke-width="2.4" stroke-linejoin="round"/>
<path d="M32.6805 26.2901C32.1614 25.8781 31.4066 25.965 30.9946 26.4841C30.5826 27.0033 30.6695 27.7581 31.1886 28.17L32.6805 26.2901ZM39.596 34.842C40.1152 35.254 40.87 35.1671 41.282 34.648C41.6939 34.1289 41.6071 33.3741 41.0879 32.9621L39.596 34.842ZM31.1886 28.17L39.596 34.842L41.0879 32.9621L32.6805 26.2901L31.1886 28.17Z" fill="#C1D3DE"/>
<path d="M38.7674 19.4906C39.4299 19.5087 39.9817 18.9863 39.9998 18.3238C40.0179 17.6613 39.4955 17.1096 38.833 17.0915L38.7674 19.4906ZM32.5416 18.1201L32.5743 16.9205C32.2602 16.9119 31.9553 17.0269 31.725 17.2407L32.5416 18.1201ZM22.9938 26.9858L22.1773 26.1064C21.9209 26.3445 21.7812 26.6826 21.7947 27.0323C21.8083 27.3819 21.9738 27.7082 22.2479 27.9257L22.9938 26.9858ZM26.4969 29.7658L25.751 30.7057C26.107 30.9883 26.5921 31.0454 27.004 30.8533L26.4969 29.7658ZM32.4419 28.3176C33.0425 28.0375 33.3024 27.3236 33.0223 26.7229C32.7422 26.1223 32.0283 25.8624 31.4276 26.1425L32.4419 28.3176ZM39.6035 32.9564C39.0812 33.3643 38.9885 34.1185 39.3965 34.6407C39.8045 35.163 40.5586 35.2557 41.0809 34.8477L39.6035 32.9564ZM45.2865 31.5625C45.8088 31.1546 45.9015 30.4004 45.4935 29.8781C45.0855 29.3559 44.3314 29.2632 43.8091 29.6712L45.2865 31.5625ZM38.833 17.0915L32.5743 16.9205L32.5088 19.3196L38.7674 19.4906L38.833 17.0915ZM31.725 17.2407L22.1773 26.1064L23.8104 27.8651L33.3581 18.9994L31.725 17.2407ZM22.2479 27.9257L25.751 30.7057L27.2429 28.8258L23.7398 26.0458L22.2479 27.9257ZM27.004 30.8533L32.4419 28.3176L31.4276 26.1425L25.9898 28.6782L27.004 30.8533ZM41.0809 34.8477L45.2865 31.5625L43.8091 29.6712L39.6035 32.9564L41.0809 34.8477Z" fill="#376FFF"/>
<path d="M45.2863 31.5626C45.8086 31.1546 45.9013 30.4005 45.4933 29.8782C45.0853 29.3559 44.3312 29.2632 43.8089 29.6712L45.2863 31.5626ZM16.325 30.2436C15.7968 29.8433 15.0441 29.947 14.6438 30.4752C14.2435 31.0035 14.3472 31.7561 14.8755 32.1564L16.325 30.2436ZM35.5039 39.204L45.2863 31.5626L43.8089 29.6712L34.0265 37.3126L35.5039 39.204ZM25.7335 37.3734L16.325 30.2436L14.8755 32.1564L24.284 39.2862L25.7335 37.3734ZM34.0265 37.3126C31.5959 39.2113 28.1917 39.2362 25.7335 37.3734L24.284 39.2862C27.6098 41.8065 32.2154 41.7727 35.5039 39.204L34.0265 37.3126Z" fill="#376FFF"/>
<path d="M22.7148 15.0723L17.1932 12.4439L8.80019 29.7687L14.6006 32.4734L22.7148 15.0723Z" stroke="#C1D3DE" stroke-width="2.4" stroke-linejoin="round"/>
<path d="M10.8 50.8H49.2001" stroke="#C1D3DE" stroke-width="2.4" stroke-linecap="round"/>
</svg>
