<svg width="60" height="60" viewBox="0 0 60 60" fill="none" xmlns="http://www.w3.org/2000/svg">
<rect x="0.5" y="0.5" width="59" height="59" rx="11.5" stroke="#C1D3DE"/>
<path d="M29.9999 10V11.6M21.5999 12.2508L22.3999 13.6364M15.4507 18.4L16.8363 19.2M13.2 26.8H14.8M15.4507 35.2L16.8363 34.4M38.4 12.2508L37.6 13.6364M44.5491 18.4L43.1635 19.2M46.7999 26.8H45.1999M44.5491 35.2L43.1635 34.4" stroke="#C1D3DE" stroke-width="2.4" stroke-linecap="round" stroke-linejoin="round"/>
<path fill-rule="evenodd" clip-rule="evenodd" d="M25.9514 25.1515C26.42 24.6828 27.1798 24.6828 27.6485 25.1515L29.9999 27.5029L32.3514 25.1515C32.82 24.6828 33.5798 24.6828 34.0485 25.1515C34.5171 25.6201 34.5171 26.3799 34.0485 26.8485L31.1999 29.697V34C31.1999 34.6627 30.6627 35.2 29.9999 35.2C29.3372 35.2 28.7999 34.6627 28.7999 34V29.697L25.9514 26.8485C25.4828 26.3799 25.4828 25.6201 25.9514 25.1515ZM33.9999 44.7999C34.6627 44.7999 35.1999 44.2627 35.1999 43.5999C35.1999 42.9372 34.6627 42.3999 33.9999 42.3999H25.9999C25.3372 42.3999 24.7999 42.9372 24.7999 43.5999C24.7999 44.2627 25.3372 44.7999 25.9999 44.7999H33.9999Z" fill="#C1D3DE"/>
<path d="M37.4325 18.3853C33.2255 14.6924 26.6037 14.545 22.2307 18.7046C20.4632 20.3832 19.2932 22.5859 18.9364 24.9113C18.48 27.8181 19.1771 30.7085 20.8781 33.0667C25.5499 39.5027 24.9524 44.6203 25.0188 44.997C25.0188 46.3398 25.5333 47.6008 26.471 48.5424C27.4086 49.4841 28.6616 49.9999 29.9976 49.9999C32.7442 49.9999 34.9763 47.7973 34.9763 45.087C35.0344 44.7349 34.4702 39.126 38.9345 33.3206C40.4198 31.3882 41.1998 29.0873 41.1998 26.6636C41.1998 23.5029 39.8306 20.4897 37.4325 18.3853Z" stroke="#376FFF" stroke-width="2.4"/>
</svg>
