<svg width="65" height="24" viewBox="0 0 65 24" fill="none" xmlns="http://www.w3.org/2000/svg">
<path d="M1.04983 10.1714H4.36502C7.30902 10.1714 9.03702 8.31543 9.03702 5.64023C9.03702 2.95223 7.19382 1.08343 4.32662 1.08343H1.04983V10.1714ZM3.40503 8.00823V3.24663H4.37782C5.56822 3.24663 6.48982 4.28343 6.48982 5.64023C6.48982 6.94583 5.58102 8.00823 4.19862 8.00823H3.40503Z" fill="#242A56"/>
<path d="M12.711 10.1714H15.2198V1.08343H12.711V10.1714Z" fill="#242A56"/>
<path d="M23.6367 10.2866C25.0447 10.2866 26.4655 9.80023 27.2847 9.18583V4.96183H23.4447V6.92023H24.9935V7.76503C24.5071 7.98263 24.1103 8.05943 23.6367 8.05943C22.2287 8.05943 21.4351 6.94583 21.4351 5.64023C21.4351 4.09143 22.4207 3.23383 23.5343 3.23383C24.4815 3.23383 25.1471 3.68183 25.5567 4.07863L27.2847 2.63223C26.3631 1.53143 24.8655 0.942627 23.5343 0.942627C20.5775 0.942627 18.8879 3.01623 18.8879 5.64023C18.8879 8.63543 20.9999 10.2866 23.6367 10.2866Z" fill="#242A56"/>
<path d="M31.081 10.1714H33.5898V1.08343H31.081V10.1714Z" fill="#242A56"/>
<path d="M39.3699 10.1714H41.8659V3.24663H44.1315V1.08343H37.1043V3.24663H39.3699V10.1714Z" fill="#242A56"/>
<path d="M45.9583 10.1714H48.5055L48.9663 8.69943H51.8847L52.3455 10.1714H54.8799L51.5903 1.08343H49.2607L45.9583 10.1714ZM49.5935 6.66423L50.4127 4.04023H50.4383L51.2575 6.66423H49.5935Z" fill="#242A56"/>
<path d="M58.0973 10.1714H64.1517V8.00823H60.6061V1.08343H58.0973V10.1714Z" fill="#242A56"/>
<path d="M0.345825 22.9714H2.89303L3.35383 21.4994H6.27222L6.73302 22.9714H9.26742L5.97782 13.8834H3.64823L0.345825 22.9714ZM3.98102 19.4642L4.80022 16.8402H4.82582L5.64502 19.4642H3.98102Z" fill="#242A56"/>
<path d="M16.4142 23.0866C17.8222 23.0866 19.243 22.6002 20.0622 21.9858V17.7618H16.2222V19.7202H17.771V20.565C17.2846 20.7826 16.8878 20.8594 16.4142 20.8594C15.0062 20.8594 14.2126 19.7458 14.2126 18.4402C14.2126 16.8914 15.1982 16.0338 16.3118 16.0338C17.259 16.0338 17.9246 16.4818 18.3342 16.8786L20.0622 15.4322C19.1406 14.3314 17.643 13.7426 16.3118 13.7426C13.355 13.7426 11.6654 15.8162 11.6654 18.4402C11.6654 21.4354 13.7774 23.0866 16.4142 23.0866Z" fill="#242A56"/>
<path d="M23.7945 22.9714H30.1049V20.8082H26.1497V19.4898H29.0297V17.4162H26.1497V16.0466H29.8361V13.8834H23.7945V22.9714Z" fill="#242A56"/>
<path d="M33.7173 22.9714H36.0981V17.9922H36.1237L39.2725 22.9714H41.6661V13.8834H39.2725V19.0162L39.2469 19.029L36.0341 13.8834H33.7173V22.9714Z" fill="#242A56"/>
<path d="M50.0317 23.0994C51.6445 23.0994 52.9501 22.3314 53.7309 21.3714L51.9517 19.8354C51.4653 20.4242 50.7869 20.757 50.0317 20.757C48.6621 20.757 47.8429 19.6818 47.8429 18.4402C47.8429 16.9042 48.9053 16.085 50.0317 16.085C50.8765 16.085 51.5677 16.597 51.9517 17.0322L53.7309 15.509C52.7069 14.2674 51.2733 13.7426 50.0317 13.7426C46.9981 13.7426 45.2829 15.829 45.2829 18.4402C45.2829 21.4738 47.3437 23.0994 50.0317 23.0994Z" fill="#242A56"/>
<path d="M59.3508 22.9714H61.834V19.0418L64.778 13.8834H61.962L60.618 16.6482H60.5924L59.21 13.8834H56.4196L59.3508 19.0418V22.9714Z" fill="#242A56"/>
</svg>
