<svg width="114" height="32" viewBox="0 0 114 32" fill="none" xmlns="http://www.w3.org/2000/svg">
<path fill-rule="evenodd" clip-rule="evenodd" d="M39.1771 32H44.7771L22.4 0L14.2629 11.6322L10.0571 4.90378L7.15429 9.05488L19.2 27.8945L8.50286 27.8489L11.5429 23.4697L8.89143 19.3186L2.92571 27.8261H2.90286L0 32H5.6H5.62286H26.9943L16.8914 15.8289L22.4 7.91447L39.1771 32Z" fill="#242A56"/>
<path d="M50.0498 14.1712H53.365C56.309 14.1712 58.037 12.3152 58.037 9.63998C58.037 6.95198 56.1938 5.08318 53.3266 5.08318H50.0498V14.1712ZM52.405 12.008V7.24638H53.3778C54.5682 7.24638 55.4898 8.28318 55.4898 9.63998C55.4898 10.9456 54.581 12.008 53.1986 12.008H52.405Z" fill="#242A56"/>
<path d="M61.711 14.1712H64.2198V5.08318H61.711V14.1712Z" fill="#242A56"/>
<path d="M72.6367 14.2864C74.0447 14.2864 75.4655 13.8 76.2847 13.1856V8.96158H72.4447V10.92H73.9935V11.7648C73.5071 11.9824 73.1103 12.0592 72.6367 12.0592C71.2287 12.0592 70.4351 10.9456 70.4351 9.63998C70.4351 8.09118 71.4207 7.23358 72.5343 7.23358C73.4815 7.23358 74.1471 7.68158 74.5567 8.07838L76.2847 6.63198C75.3631 5.53118 73.8655 4.94238 72.5343 4.94238C69.5775 4.94238 67.8879 7.01598 67.8879 9.63998C67.8879 12.6352 69.9999 14.2864 72.6367 14.2864Z" fill="#242A56"/>
<path d="M80.081 14.1712H82.5898V5.08318H80.081V14.1712Z" fill="#242A56"/>
<path d="M88.3699 14.1712H90.8659V7.24638H93.1315V5.08318H86.1043V7.24638H88.3699V14.1712Z" fill="#242A56"/>
<path d="M94.9583 14.1712H97.5055L97.9663 12.6992H100.885L101.346 14.1712H103.88L100.59 5.08318H98.2607L94.9583 14.1712ZM98.5935 10.664L99.4127 8.03998H99.4383L100.258 10.664H98.5935Z" fill="#242A56"/>
<path d="M107.097 14.1712H113.152V12.008H109.606V5.08318H107.097V14.1712Z" fill="#242A56"/>
<path d="M49.3458 26.9712H51.893L52.3538 25.4992H55.2722L55.733 26.9712H58.2674L54.9778 17.8832H52.6482L49.3458 26.9712ZM52.981 23.464L53.8002 20.84H53.8258L54.645 23.464H52.981Z" fill="#242A56"/>
<path d="M65.4142 27.0864C66.8222 27.0864 68.243 26.6 69.0622 25.9856V21.7616H65.2222V23.72H66.771V24.5648C66.2846 24.7824 65.8878 24.8592 65.4142 24.8592C64.0062 24.8592 63.2126 23.7456 63.2126 22.44C63.2126 20.8912 64.1982 20.0336 65.3118 20.0336C66.259 20.0336 66.9246 20.4816 67.3342 20.8784L69.0622 19.432C68.1406 18.3312 66.643 17.7424 65.3118 17.7424C62.355 17.7424 60.6654 19.816 60.6654 22.44C60.6654 25.4352 62.7774 27.0864 65.4142 27.0864Z" fill="#242A56"/>
<path d="M72.7945 26.9712H79.1049V24.808H75.1497V23.4896H78.0297V21.416H75.1497V20.0464H78.8361V17.8832H72.7945V26.9712Z" fill="#242A56"/>
<path d="M82.7173 26.9712H85.0981V21.992H85.1237L88.2725 26.9712H90.6661V17.8832H88.2725V23.016L88.2469 23.0288L85.0341 17.8832H82.7173V26.9712Z" fill="#242A56"/>
<path d="M99.0317 27.0992C100.645 27.0992 101.95 26.3312 102.731 25.3712L100.952 23.8352C100.465 24.424 99.7869 24.7568 99.0317 24.7568C97.6621 24.7568 96.8429 23.6816 96.8429 22.44C96.8429 20.904 97.9053 20.0848 99.0317 20.0848C99.8765 20.0848 100.568 20.5968 100.952 21.032L102.731 19.5088C101.707 18.2672 100.273 17.7424 99.0317 17.7424C95.9981 17.7424 94.2829 19.8288 94.2829 22.44C94.2829 25.4736 96.3437 27.0992 99.0317 27.0992Z" fill="#242A56"/>
<path d="M108.351 26.9712H110.834V23.0416L113.778 17.8832H110.962L109.618 20.648H109.592L108.21 17.8832H105.42L108.351 23.0416V26.9712Z" fill="#242A56"/>
</svg>
